<?xml version="1.0" encoding="UTF-8" standalone="no"?>
<!-- Generator: Adobe Illustrator 13.0.2, SVG Export Plug-In . SVG Version: 6.00 Build 14948)  -->

<svg
   xmlns:dc="http://purl.org/dc/elements/1.1/"
   xmlns:cc="http://creativecommons.org/ns#"
   xmlns:rdf="http://www.w3.org/1999/02/22-rdf-syntax-ns#"
   xmlns:svg="http://www.w3.org/2000/svg"
   xmlns="http://www.w3.org/2000/svg"
   xmlns:xlink="http://www.w3.org/1999/xlink"
   xmlns:sodipodi="http://sodipodi.sourceforge.net/DTD/sodipodi-0.dtd"
   xmlns:inkscape="http://www.inkscape.org/namespaces/inkscape"
   version="1.1"
   id="Layer_1"
   x="0px"
   y="0px"
   width="120"
   height="90"
   viewBox="0 0 120 90"
   enable-background="new 0 0 400 300"
   xml:space="preserve"
   sodipodi:docname="mdn120.svg"
   inkscape:version="0.92.3 (2405546, 2018-03-11)"><metadata
   id="metadata254"><rdf:RDF><cc:Work
       rdf:about=""><dc:format>image/svg+xml</dc:format><dc:type
         rdf:resource="http://purl.org/dc/dcmitype/StillImage" /><dc:title></dc:title></cc:Work></rdf:RDF></metadata><defs
   id="defs252" /><sodipodi:namedview
   pagecolor="#ffffff"
   bordercolor="#666666"
   borderopacity="1"
   objecttolerance="10"
   gridtolerance="10"
   guidetolerance="10"
   inkscape:pageopacity="0"
   inkscape:pageshadow="2"
   inkscape:window-width="1920"
   inkscape:window-height="1017"
   id="namedview250"
   showgrid="false"
   inkscape:zoom="2.2250293"
   inkscape:cx="93.277528"
   inkscape:cy="25.933831"
   inkscape:window-x="-8"
   inkscape:window-y="-8"
   inkscape:window-maximized="1"
   inkscape:current-layer="Layer_1" />
<g
   id="g247"
   transform="matrix(0.3,0,0,0.3,0.0471,1.59825)">
	
		<linearGradient
   id="SVGID_1_"
   gradientUnits="userSpaceOnUse"
   x1="-102.1206"
   y1="-471.71039"
   x2="-102.1206"
   y2="-365.87839"
   gradientTransform="matrix(1.98,0,0,-1.98,402.04,-684.3301)">
		<stop
   offset="0"
   style="stop-color:#2075BC"
   id="stop138" />
		<stop
   offset="1"
   style="stop-color:#29AAE1"
   id="stop140" />
	</linearGradient>
	<polygon
   points="81,63.963 81,249.447 140.236,226.861 199.839,249.447 199.839,249.447 199.839,249.447 199.839,249.447 199.839,249.447 259.074,226.861 318.686,249.447 318.686,63.963 259.074,40.269 259.074,39.898 259.074,40.269 258.706,39.898 258.706,40.269 199.839,63.594 140.604,40.269 140.604,39.898 140.236,40.269 140.236,39.898 140.236,40.269 "
   id="polygon143"
   style="fill:url(#SVGID_1_)" />
	<g
   id="g173">
		
			<linearGradient
   id="SVGID_2_"
   gradientUnits="userSpaceOnUse"
   x1="-147.0903"
   y1="-471.71039"
   x2="-147.0903"
   y2="-365.87839"
   gradientTransform="matrix(1.98,0,0,-1.98,402.04,-684.3301)">
			<stop
   offset="0"
   style="stop-color:#0A6AA8"
   id="stop145" />
			<stop
   offset="1"
   style="stop-color:#1699C8"
   id="stop147" />
		</linearGradient>
		<polygon
   points="140.604,39.898 81,63.963 81,249.447 140.604,226.861 "
   id="polygon150"
   style="fill:url(#SVGID_2_)" />
		
			<linearGradient
   id="SVGID_3_"
   gradientUnits="userSpaceOnUse"
   x1="-117.1738"
   y1="-471.71039"
   x2="-117.1738"
   y2="-365.87839"
   gradientTransform="matrix(1.98,0,0,-1.98,402.04,-684.3301)">
			<stop
   offset="0"
   style="stop-color:#2075BC"
   id="stop152" />
			<stop
   offset="1"
   style="stop-color:#29AAE1"
   id="stop154" />
		</linearGradient>
		<polygon
   points="140.236,39.898 199.839,63.963 199.839,249.447 140.236,226.861 "
   id="polygon157"
   style="fill:url(#SVGID_3_)" />
		
			<linearGradient
   id="SVGID_4_"
   gradientUnits="userSpaceOnUse"
   x1="-87.164101"
   y1="-471.71039"
   x2="-87.164101"
   y2="-365.87839"
   gradientTransform="matrix(1.98,0,0,-1.98,402.04,-684.3301)">
			<stop
   offset="0"
   style="stop-color:#0A6AA8"
   id="stop159" />
			<stop
   offset="1"
   style="stop-color:#1699C8"
   id="stop161" />
		</linearGradient>
		<polygon
   points="259.074,39.898 199.839,63.963 199.839,249.447 259.074,226.861 "
   id="polygon164"
   style="fill:url(#SVGID_4_)" />
		
			<linearGradient
   id="SVGID_5_"
   gradientUnits="userSpaceOnUse"
   x1="-57.245098"
   y1="-471.71039"
   x2="-57.245098"
   y2="-365.87839"
   gradientTransform="matrix(1.98,0,0,-1.98,402.04,-684.3301)">
			<stop
   offset="0"
   style="stop-color:#2075BC"
   id="stop166" />
			<stop
   offset="1"
   style="stop-color:#29AAE1"
   id="stop168" />
		</linearGradient>
		<polygon
   points="258.706,39.898 318.686,63.963 318.686,249.447 258.706,226.861 "
   id="polygon171"
   style="fill:url(#SVGID_5_)" />
	</g>
	<g
   id="g245">
		<g
   id="g187">
			<g
   id="g185">
				<g
   id="g183">
					<defs
   id="defs176">
						<path
   id="SVGID_6_"
   d="m 284.621,148.745 c -2.22,-6.294 -1.482,-17.03 -2.589,-18.511 -7.035,-9.626 -32.214,-11.107 -43.689,-23.696 1.852,-6.292 -2.22,-11.106 -6.291,-15.178 -6.298,-4.443 -14.809,-2.592 -21.476,-0.741 -7.404,-1.48 -14.44,-4.443 -21.843,-6.294 -16.288,-1.851 -32.579,9.626 -32.579,9.626 -11.848,7.405 -29.987,22.955 -38.874,31.84 2.224,0.371 4.443,-1.48 7.036,-1.48 l 17.029,-4.443 c -7.032,5.924 -21.841,15.92 -26.284,24.064 5.181,-1.851 16.288,-7.775 21.841,-8.515 -4.812,4.073 -14.809,12.217 -18.139,17.399 0.369,0.372 0,0.741 0,1.11 4.071,-2.221 14.067,-8.145 18.88,-8.515 -4.812,4.812 -13.327,14.44 -15.178,20.735 4.071,-2.593 14.437,-8.146 18.88,-9.629 -1.11,2.592 -3.33,4.443 -4.812,6.664 -2.22,3.333 -7.036,7.404 -7.036,11.479 3.702,-3.334 8.146,-6.295 12.589,-8.514 -1.851,4.07 -5.553,7.404 -6.664,12.584 2.961,-2.961 8.515,-4.443 12.217,-5.553 l -0.369,0.373 c -0.373,0.368 -4.443,3.329 -7.404,6.662 2.588,0 0.737,-0.371 4.071,0.369 h 1.851 c -0.741,0.373 -1.851,1.11 -2.961,1.482 v 0 c -1.482,0.741 -3.333,1.852 -4.812,2.592 7.032,8.884 15.547,16.288 25.543,21.101 12.958,6.294 27.025,8.519 41.463,6.667 0,-0.741 -0.368,-1.482 -0.736,-2.592 v 0 0 c -0.369,-1.11 -0.746,-1.852 -0.746,-2.962 v 0 0 c 4.816,-8.887 2.228,-24.437 14.81,-30.731 8.519,-4.439 9.255,-6.663 18.888,-4.812 5.177,1.11 16.66,4.812 21.837,3.703 4.815,-2.593 7.404,-4.071 11.852,-7.032 5.185,1.11 7.036,0.368 8.887,-2.224 -1.851,2.592 3.326,-9.625 5.554,-14.068 z"
   inkscape:connector-curvature="0" />
					</defs>
					<clipPath
   id="SVGID_7_">
						<use
   xlink:href="#SVGID_6_"
   overflow="visible"
   id="use178"
   style="overflow:visible"
   x="0"
   y="0"
   width="100%"
   height="100%" />
					</clipPath>
					<path
   clip-path="url(#SVGID_7_)"
   d="m 199.839,74.701 c 60.935,0 110.329,33.481 110.329,74.785 0,41.305 -49.395,74.783 -110.329,74.783 -60.926,0 -110.324,-33.479 -110.324,-74.783 0,-41.304 49.398,-74.785 110.324,-74.785 z"
   id="path181"
   inkscape:connector-curvature="0"
   style="fill:#ffffff" />
				</g>
			</g>
		</g>
		<g
   id="g201">
			<g
   id="g199">
				<g
   id="g197">
					<defs
   id="defs190">
						<path
   id="SVGID_8_"
   d="m 284.621,148.745 c -2.22,-6.294 -1.482,-17.03 -2.589,-18.511 -7.035,-9.626 -32.214,-11.107 -43.689,-23.696 1.852,-6.292 -2.22,-11.106 -6.291,-15.178 -6.298,-4.443 -14.809,-2.592 -21.476,-0.741 -7.404,-1.48 -14.44,-4.443 -21.843,-6.294 -16.288,-1.851 -32.579,9.626 -32.579,9.626 -11.848,7.405 -29.987,22.955 -38.874,31.84 2.224,0.371 4.443,-1.48 7.036,-1.48 l 17.029,-4.443 c -7.032,5.924 -21.841,15.92 -26.284,24.064 5.181,-1.851 16.288,-7.775 21.841,-8.515 -4.812,4.073 -14.809,12.217 -18.139,17.399 0.369,0.372 0,0.741 0,1.11 4.071,-2.221 14.067,-8.145 18.88,-8.515 -4.812,4.812 -13.327,14.44 -15.178,20.735 4.071,-2.593 14.437,-8.146 18.88,-9.629 -1.11,2.592 -3.33,4.443 -4.812,6.664 -2.22,3.333 -7.036,7.404 -7.036,11.479 3.702,-3.334 8.146,-6.295 12.589,-8.514 -1.851,4.07 -5.553,7.404 -6.664,12.584 2.961,-2.961 8.515,-4.443 12.217,-5.553 l -0.369,0.373 c -0.373,0.368 -4.443,3.329 -7.404,6.662 2.588,0 0.737,-0.371 4.071,0.369 h 1.851 c -0.741,0.373 -1.851,1.11 -2.961,1.482 v 0 c -1.482,0.741 -3.333,1.852 -4.812,2.592 7.032,8.884 15.547,16.288 25.543,21.101 12.958,6.294 27.025,8.519 41.463,6.667 0,-0.741 -0.368,-1.482 -0.736,-2.592 v 0 0 c -0.369,-1.11 -0.746,-1.852 -0.746,-2.962 v 0 0 c 4.816,-8.887 2.228,-24.437 14.81,-30.731 8.519,-4.439 9.255,-6.663 18.888,-4.812 5.177,1.11 16.66,4.812 21.837,3.703 4.815,-2.593 7.404,-4.071 11.852,-7.032 5.185,1.11 7.036,0.368 8.887,-2.224 -1.851,2.592 3.326,-9.625 5.554,-14.068 z"
   inkscape:connector-curvature="0" />
					</defs>
					<clipPath
   id="SVGID_9_">
						<use
   xlink:href="#SVGID_8_"
   overflow="visible"
   id="use192"
   style="overflow:visible"
   x="0"
   y="0"
   width="100%"
   height="100%" />
					</clipPath>
					<polygon
   clip-path="url(#SVGID_9_)"
   points="141.346,43.601 82.482,67.296 82.482,255 141.346,231.674 "
   id="polygon195"
   style="fill:#f2f2f2" />
				</g>
			</g>
		</g>
		<g
   id="g215">
			<g
   id="g213">
				<g
   id="g211">
					<defs
   id="defs204">
						<path
   id="SVGID_10_"
   d="m 284.621,148.745 c -2.22,-6.294 -1.482,-17.03 -2.589,-18.511 -7.035,-9.626 -32.214,-11.107 -43.689,-23.696 1.852,-6.292 -2.22,-11.106 -6.291,-15.178 -6.298,-4.443 -14.809,-2.592 -21.476,-0.741 -7.404,-1.48 -14.44,-4.443 -21.843,-6.294 -16.288,-1.851 -32.579,9.626 -32.579,9.626 -11.848,7.405 -29.987,22.955 -38.874,31.84 2.224,0.371 4.443,-1.48 7.036,-1.48 l 17.029,-4.443 c -7.032,5.924 -21.841,15.92 -26.284,24.064 5.181,-1.851 16.288,-7.775 21.841,-8.515 -4.812,4.073 -14.809,12.217 -18.139,17.399 0.369,0.372 0,0.741 0,1.11 4.071,-2.221 14.067,-8.145 18.88,-8.515 -4.812,4.812 -13.327,14.44 -15.178,20.735 4.071,-2.593 14.437,-8.146 18.88,-9.629 -1.11,2.592 -3.33,4.443 -4.812,6.664 -2.22,3.333 -7.036,7.404 -7.036,11.479 3.702,-3.334 8.146,-6.295 12.589,-8.514 -1.851,4.07 -5.553,7.404 -6.664,12.584 2.961,-2.961 8.515,-4.443 12.217,-5.553 l -0.369,0.373 c -0.373,0.368 -4.443,3.329 -7.404,6.662 2.588,0 0.737,-0.371 4.071,0.369 h 1.851 c -0.741,0.373 -1.851,1.11 -2.961,1.482 v 0 c -1.482,0.741 -3.333,1.852 -4.812,2.592 7.032,8.884 15.547,16.288 25.543,21.101 12.958,6.294 27.025,8.519 41.463,6.667 0,-0.741 -0.368,-1.482 -0.736,-2.592 v 0 0 c -0.369,-1.11 -0.746,-1.852 -0.746,-2.962 v 0 0 c 4.816,-8.887 2.228,-24.437 14.81,-30.731 8.519,-4.439 9.255,-6.663 18.888,-4.812 5.177,1.11 16.66,4.812 21.837,3.703 4.815,-2.593 7.404,-4.071 11.852,-7.032 5.185,1.11 7.036,0.368 8.887,-2.224 -1.851,2.592 3.326,-9.625 5.554,-14.068 z"
   inkscape:connector-curvature="0" />
					</defs>
					<clipPath
   id="SVGID_11_">
						<use
   xlink:href="#SVGID_10_"
   overflow="visible"
   id="use206"
   style="overflow:visible"
   x="0"
   y="0"
   width="100%"
   height="100%" />
					</clipPath>
					<polygon
   clip-path="url(#SVGID_11_)"
   points="140.977,43.601 200.214,67.296 200.214,255 140.977,231.674 "
   id="polygon209"
   style="fill:#ffffff" />
				</g>
			</g>
		</g>
		<g
   id="g229">
			<g
   id="g227">
				<g
   id="g225">
					<defs
   id="defs218">
						<path
   id="SVGID_12_"
   d="m 284.621,148.745 c -2.22,-6.294 -1.482,-17.03 -2.589,-18.511 -7.035,-9.626 -32.214,-11.107 -43.689,-23.696 1.852,-6.292 -2.22,-11.106 -6.291,-15.178 -6.298,-4.443 -14.809,-2.592 -21.476,-0.741 -7.404,-1.48 -14.44,-4.443 -21.843,-6.294 -16.288,-1.851 -32.579,9.626 -32.579,9.626 -11.848,7.405 -29.987,22.955 -38.874,31.84 2.224,0.371 4.443,-1.48 7.036,-1.48 l 17.029,-4.443 c -7.032,5.924 -21.841,15.92 -26.284,24.064 5.181,-1.851 16.288,-7.775 21.841,-8.515 -4.812,4.073 -14.809,12.217 -18.139,17.399 0.369,0.372 0,0.741 0,1.11 4.071,-2.221 14.067,-8.145 18.88,-8.515 -4.812,4.812 -13.327,14.44 -15.178,20.735 4.071,-2.593 14.437,-8.146 18.88,-9.629 -1.11,2.592 -3.33,4.443 -4.812,6.664 -2.22,3.333 -7.036,7.404 -7.036,11.479 3.702,-3.334 8.146,-6.295 12.589,-8.514 -1.851,4.07 -5.553,7.404 -6.664,12.584 2.961,-2.961 8.515,-4.443 12.217,-5.553 l -0.369,0.373 c -0.373,0.368 -4.443,3.329 -7.404,6.662 2.588,0 0.737,-0.371 4.071,0.369 h 1.851 c -0.741,0.373 -1.851,1.11 -2.961,1.482 v 0 c -1.482,0.741 -3.333,1.852 -4.812,2.592 7.032,8.884 15.547,16.288 25.543,21.101 12.958,6.294 27.025,8.519 41.463,6.667 0,-0.741 -0.368,-1.482 -0.736,-2.592 v 0 0 c -0.369,-1.11 -0.746,-1.852 -0.746,-2.962 v 0 0 c 4.816,-8.887 2.228,-24.437 14.81,-30.731 8.519,-4.439 9.255,-6.663 18.888,-4.812 5.177,1.11 16.66,4.812 21.837,3.703 4.815,-2.593 7.404,-4.071 11.852,-7.032 5.185,1.11 7.036,0.368 8.887,-2.224 -1.851,2.592 3.326,-9.625 5.554,-14.068 z"
   inkscape:connector-curvature="0" />
					</defs>
					<clipPath
   id="SVGID_13_">
						<use
   xlink:href="#SVGID_12_"
   overflow="visible"
   id="use220"
   style="overflow:visible"
   x="0"
   y="0"
   width="100%"
   height="100%" />
					</clipPath>
					<polygon
   clip-path="url(#SVGID_13_)"
   points="258.706,43.601 200.214,67.296 200.214,255 258.706,231.674 "
   id="polygon223"
   style="fill:#f2f2f2" />
				</g>
			</g>
		</g>
		<g
   id="g243">
			<g
   id="g241">
				<g
   id="g239">
					<defs
   id="defs232">
						<path
   id="SVGID_14_"
   d="m 284.621,148.745 c -2.22,-6.294 -1.482,-17.03 -2.589,-18.511 -7.035,-9.626 -32.214,-11.107 -43.689,-23.696 1.852,-6.292 -2.22,-11.106 -6.291,-15.178 -6.298,-4.443 -14.809,-2.592 -21.476,-0.741 -7.404,-1.48 -14.44,-4.443 -21.843,-6.294 -16.288,-1.851 -32.579,9.626 -32.579,9.626 -11.848,7.405 -29.987,22.955 -38.874,31.84 2.224,0.371 4.443,-1.48 7.036,-1.48 l 17.029,-4.443 c -7.032,5.924 -21.841,15.92 -26.284,24.064 5.181,-1.851 16.288,-7.775 21.841,-8.515 -4.812,4.073 -14.809,12.217 -18.139,17.399 0.369,0.372 0,0.741 0,1.11 4.071,-2.221 14.067,-8.145 18.88,-8.515 -4.812,4.812 -13.327,14.44 -15.178,20.735 4.071,-2.593 14.437,-8.146 18.88,-9.629 -1.11,2.592 -3.33,4.443 -4.812,6.664 -2.22,3.333 -7.036,7.404 -7.036,11.479 3.702,-3.334 8.146,-6.295 12.589,-8.514 -1.851,4.07 -5.553,7.404 -6.664,12.584 2.961,-2.961 8.515,-4.443 12.217,-5.553 l -0.369,0.373 c -0.373,0.368 -4.443,3.329 -7.404,6.662 2.588,0 0.737,-0.371 4.071,0.369 h 1.851 c -0.741,0.373 -1.851,1.11 -2.961,1.482 v 0 c -1.482,0.741 -3.333,1.852 -4.812,2.592 7.032,8.884 15.547,16.288 25.543,21.101 12.958,6.294 27.025,8.519 41.463,6.667 0,-0.741 -0.368,-1.482 -0.736,-2.592 v 0 0 c -0.369,-1.11 -0.746,-1.852 -0.746,-2.962 v 0 0 c 4.816,-8.887 2.228,-24.437 14.81,-30.731 8.519,-4.439 9.255,-6.663 18.888,-4.812 5.177,1.11 16.66,4.812 21.837,3.703 4.815,-2.593 7.404,-4.071 11.852,-7.032 5.185,1.11 7.036,0.368 8.887,-2.224 -1.851,2.592 3.326,-9.625 5.554,-14.068 z"
   inkscape:connector-curvature="0" />
					</defs>
					<clipPath
   id="SVGID_15_">
						<use
   xlink:href="#SVGID_14_"
   overflow="visible"
   id="use234"
   style="overflow:visible"
   x="0"
   y="0"
   width="100%"
   height="100%" />
					</clipPath>
					<polygon
   clip-path="url(#SVGID_15_)"
   points="258.706,43.601 317.941,67.296 317.941,255 258.706,231.674 "
   id="polygon237"
   style="fill:#ffffff" />
				</g>
			</g>
		</g>
	</g>
</g>
</svg>